<svg xmlns="http://www.w3.org/2000/svg" width="16" height="16" viewBox="0 0 16 16">
  <metadata><?xpacket begin="﻿" id="W5M0MpCehiHzreSzNTczkc9d"?>
<x:xmpmeta xmlns:x="adobe:ns:meta/" x:xmptk="Adobe XMP Core 5.6-c138 79.159824, 2016/09/14-01:09:01        ">
   <rdf:RDF xmlns:rdf="http://www.w3.org/1999/02/22-rdf-syntax-ns#">
      <rdf:Description rdf:about=""/>
   </rdf:RDF>
</x:xmpmeta>
                                                                                                    
                                                                                                    
                                                                                                    
                                                                                                    
                                                                                                    
                                                                                                    
                                                                                                    
                                                                                                    
                                                                                                    
                                                                                                    
                                                                                                    
                                                                                                    
                                                                                                    
                                                                                                    
                                                                                                    
                                                                                                    
                                                                                                    
                                                                                                    
                                                                                                    
                                                                                                    
                           
<?xpacket end="w"?></metadata>
<defs>
    <style>
      .cls-1 {
        fill: #e6e6e6;
        fill-rule: evenodd;
      }
    </style>
  </defs>
  <path id="_-e-icon-comments" data-name="-e-icon-comments" class="cls-1" d="M600,4411.13a7.242,7.242,0,0,0-2.464.43,6.208,6.208,0,0,0-1.932,1.13,4.3,4.3,0,0,0-1.6,3.25,3.893,3.893,0,0,0,.519,1.93,5.106,5.106,0,0,0,1.547,1.67,2.174,2.174,0,0,1,.877,1.47,5.523,5.523,0,0,1,.053.6,4.059,4.059,0,0,0,.342-0.33,1.956,1.956,0,0,1,1.414-.63,2.156,2.156,0,0,1,.253.02,6.6,6.6,0,0,0,1,.07,7.251,7.251,0,0,0,2.464-.43,6.2,6.2,0,0,0,1.931-1.13,4.083,4.083,0,0,0,0-6.49,6.2,6.2,0,0,0-1.931-1.13A7.251,7.251,0,0,0,600,4411.13Zm0-2.13h0c4.418,0,8,3.1,8,6.94s-3.582,6.93-8,6.93a10.221,10.221,0,0,1-1.248-.08A7.52,7.52,0,0,1,593,4425v-0.45a3.375,3.375,0,0,0,2-2.74,3.306,3.306,0,0,0-.034-0.48,6.627,6.627,0,0,1-2.966-5.39C592,4412.1,595.581,4409,600,4409Z" transform="translate(-592 -4409)"/>
</svg>
