<!-- Generated by IcoMoon.io -->
<svg version="1.1" xmlns="http://www.w3.org/2000/svg" width="1024" height="1024" viewBox="0 0 1024 1024">
<title></title>
<g id="icomoon-ignore">
</g>
<path fill="#dee1e3" d="M253.535 419.694h110.775v332.306h-110.775v-332.306z"></path>
<path fill="#dee1e3" d="M364.31 327.388c0 30.585-24.795 55.388-55.388 55.388s-55.388-24.795-55.388-55.388c0-30.585 24.795-55.388 55.388-55.388s55.388 24.795 55.388 55.388z"></path>
<path fill="#dee1e3" d="M438.155 419.694h102.188v52.372h1.455c14.212-25.492 49.012-52.372 100.875-52.372 107.854 0 127.785 67.148 127.785 154.466v177.84h-106.508v-157.665c0-37.605-0.772-85.972-55.398-85.972-55.482 0-63.934 40.946-63.934 83.238v160.395h-106.466v-332.306z"></path>
</svg>
