<!-- Generated by IcoMoon.io -->
<svg version="1.1" xmlns="http://www.w3.org/2000/svg" width="1843" height="1024" viewBox="0 0 1843 1024">
<title></title>
<g id="icomoon-ignore">
</g>
<path fill="#b0b3b6" d="M961.729 208.367l519.641 516.49c9.509 9.477 15.376 22.586 15.376 37.072s-5.881 27.595-15.374 37.071l-10.616 10.227c-9.509 9.485-22.626 15.355-37.116 15.355s-27.61-5.87-37.118-15.356l-471.915-469.183-478.136 475.583c-9.509 9.469-22.626 15.33-37.116 15.33s-27.61-5.858-37.119-15.33l-10.612-10.656c-9.488-9.408-15.37-22.45-15.37-36.859s5.881-27.45 15.365-36.859l525.864-522.878c9.509-9.469 22.626-15.33 37.116-15.33s27.61 5.858 37.119 15.33z"></path>
</svg>
