<!-- Generated by IcoMoon.io -->
<svg version="1.1" xmlns="http://www.w3.org/2000/svg" width="1024" height="1024" viewBox="0 0 1024 1024">
<title></title>
<g id="icomoon-ignore">
</g>
<path fill="#dee1e3" d="M846.572 375.45c0 0-6.678-47.072-27.207-67.745-26.006-27.207-55.067-27.327-68.407-28.932-95.485-6.935-238.838-6.935-238.838-6.935h-0.255c0 0-143.357 0-238.838 6.935-13.34 1.605-42.393 1.726-68.407 28.932-20.544 20.673-27.078 67.745-27.078 67.745s-6.803 55.216-6.803 110.547v51.74c0 55.199 6.803 110.547 6.803 110.547s6.678 47.072 27.078 67.745c26.006 27.207 60.148 26.267 75.342 29.213 54.686 5.207 232.165 6.803 232.165 6.803s143.485-0.255 238.97-7.067c13.34-1.605 42.421-1.726 68.407-28.932 20.524-20.673 27.207-67.745 27.207-67.745s6.803-55.199 6.803-110.547v-51.74c-0.132-55.216-6.935-110.547-6.935-110.547zM441.458 600.55v-191.898l184.433 96.296-184.433 95.606z"></path>
</svg>
